<svg xmlns="http://www.w3.org/2000/svg" width="25.99" height="19.357" viewBox="0 0 25.99 19.357"><g opacity="0.998"><path d="M16.229,36.641a2.272,2.272,0,0,1,0,3.93L3.358,47.986a2.229,2.229,0,0,1-2.24-.008A2.266,2.266,0,0,1,0,46.021V31.19a2.266,2.266,0,0,1,1.118-1.957,2.229,2.229,0,0,1,2.24-.008l12.871,7.416Z" transform="translate(0 -28.927)" fill="#4c62ee" fill-rule="evenodd" opacity="0.496"/><path d="M166.229,36.641a2.272,2.272,0,0,1,0,3.93l-12.871,7.416a2.229,2.229,0,0,1-2.24-.008A2.266,2.266,0,0,1,150,46.021V31.19a2.266,2.266,0,0,1,1.118-1.957,2.229,2.229,0,0,1,2.24-.008l12.871,7.416Z" transform="translate(-141.37 -28.927)" fill="#4c62ee" fill-rule="evenodd"/></g></svg>